<svg id="Capa_1" data-name="Capa 1" xmlns="http://www.w3.org/2000/svg" xmlns:xlink="http://www.w3.org/1999/xlink" viewBox="0 0 595.28 841.89"><defs><style>.cls-1{fill:#c5423f;}.cls-2{fill:#48c1ec;}.cls-3{fill:#1f2f57;}.cls-4{fill:#82cff1;}.cls-5{clip-path:url(#clip-path);}.cls-6{fill:#ea8089;}.cls-7{clip-path:url(#clip-path-2);}.cls-8{fill:#fff;}.cls-9{clip-path:url(#clip-path-3);}.cls-10{clip-path:url(#clip-path-4);}.cls-11{fill:#d1d2d4;}.cls-12{fill:#f49523;}</style><clipPath id="clip-path"><ellipse class="cls-1" cx="253.95" cy="148.58" rx="29.91" ry="27.82"/></clipPath><clipPath id="clip-path-2"><ellipse class="cls-1" cx="345.82" cy="148.58" rx="29.91" ry="27.82"/></clipPath><clipPath id="clip-path-3"><rect class="cls-2" x="200.38" y="250.09" width="199.02" height="260.06" rx="21.38"/></clipPath><clipPath id="clip-path-4"><path class="cls-3" d="M236,250.09H359.31a0,0,0,0,1,0,0v87.43a61.67,61.67,0,0,1-61.67,61.67h0A61.67,61.67,0,0,1,236,337.51V250.09A0,0,0,0,1,236,250.09Z"/></clipPath></defs><rect class="cls-1" x="263.88" y="227.95" width="69.96" height="22.13"/><rect class="cls-4" x="197.36" y="96.28" width="205.04" height="131.67" rx="18.09"/><ellipse class="cls-3" cx="253.95" cy="148.58" rx="34.54" ry="32.12"/><ellipse class="cls-1" cx="253.95" cy="148.58" rx="29.91" ry="27.82"/><g class="cls-5"><rect class="cls-6" x="252.71" y="116.53" width="18.49" height="64.09"/><rect class="cls-6" x="238.57" y="116.53" width="10.17" height="64.09"/></g><ellipse class="cls-3" cx="345.82" cy="148.58" rx="34.54" ry="32.12"/><ellipse class="cls-1" cx="345.82" cy="148.58" rx="29.91" ry="27.82"/><g class="cls-7"><rect class="cls-6" x="327.67" y="116.48" width="15.86" height="68.88"/><rect class="cls-6" x="347.23" y="117.17" width="6.77" height="68.88"/><rect class="cls-6" x="356.53" y="117.23" width="6.77" height="68.88"/></g><rect class="cls-8" x="256.25" y="192.83" width="87.27" height="22.67" rx="5.73"/><rect class="cls-3" x="263.88" y="192.83" width="4.1" height="22.67"/><rect class="cls-3" x="273.58" y="192.83" width="4.1" height="22.67"/><rect class="cls-3" x="283.29" y="192.83" width="4.1" height="22.67"/><rect class="cls-3" x="292.99" y="192.83" width="4.1" height="22.67"/><rect class="cls-3" x="302.69" y="192.83" width="4.1" height="22.67"/><rect class="cls-3" x="312.39" y="192.83" width="4.1" height="22.67"/><rect class="cls-3" x="322.09" y="192.83" width="4.1" height="22.67"/><rect class="cls-3" x="331.8" y="192.83" width="4.1" height="22.67"/><rect class="cls-2" x="237.64" y="82" width="124.5" height="14.28"/><rect class="cls-3" x="176.71" y="120.76" width="20.66" height="78.01"/><rect class="cls-3" x="402.41" y="123.11" width="20.66" height="78.01"/><rect class="cls-2" x="200.38" y="250.09" width="199.02" height="260.06" rx="21.38"/><g class="cls-9"><rect class="cls-4" x="189.22" y="462.38" width="221.02" height="67.35"/></g><path class="cls-3" d="M236,250.09H359.31a0,0,0,0,1,0,0v87.43a61.67,61.67,0,0,1-61.67,61.67h0A61.67,61.67,0,0,1,236,337.51V250.09A0,0,0,0,1,236,250.09Z"/><g class="cls-10"><rect class="cls-11" x="263.13" y="291.53" width="9.7" height="52.11"/><rect class="cls-11" x="282.53" y="291.53" width="9.7" height="52.11"/><rect class="cls-11" x="301.94" y="291.53" width="9.7" height="52.11"/><rect class="cls-11" x="321.34" y="291.53" width="9.7" height="52.11"/></g><rect class="cls-3" x="224.05" y="510.14" width="32.2" height="237.47"/><rect class="cls-3" x="343.21" y="510.14" width="32.2" height="237.47"/><ellipse class="cls-2" cx="240.15" cy="618.54" rx="28.41" ry="26.43"/><ellipse class="cls-2" cx="359.31" cy="621.67" rx="28.41" ry="26.43"/><path class="cls-2" d="M256.25,841.89h-67l19.6-82.07c1.7-7.13,8.5-12.2,16.35-12.2h31.08Z"/><path class="cls-3" d="M256.25,841.89H174.63c0-16,13.94-29,31.15-29h50.47Z"/><rect class="cls-11" x="190.69" y="829.8" width="11.38" height="12.09"/><rect class="cls-11" x="209.3" y="829.8" width="11.38" height="12.09"/><rect class="cls-11" x="226.84" y="829.8" width="11.38" height="12.09"/><path class="cls-2" d="M343.21,841.89h67l-19.6-82.07c-1.7-7.13-8.5-12.2-16.35-12.2H343.21Z"/><path class="cls-3" d="M343.21,841.89h81.63c0-16-13.95-29-31.15-29H343.21Z"/><rect class="cls-11" x="397.39" y="829.8" width="11.38" height="12.09" transform="translate(806.17 1671.69) rotate(180)"/><rect class="cls-11" x="378.79" y="829.8" width="11.38" height="12.09" transform="translate(768.95 1671.69) rotate(180)"/><rect class="cls-11" x="361.25" y="829.8" width="11.38" height="12.09" transform="translate(733.87 1671.69) rotate(180)"/><rect class="cls-11" x="234.17" y="668.14" width="11.96" height="79.47"/><rect class="cls-11" x="353.33" y="668.14" width="11.96" height="79.47"/><rect class="cls-11" x="234.32" y="510.14" width="11.96" height="15.91"/><rect class="cls-11" x="353.49" y="510.14" width="11.96" height="15.91"/><polygon class="cls-3" points="200.38 264.29 176.71 264.29 144.13 264.29 144.13 317.21 144.13 317.58 155.25 317.58 155.25 429.31 165.58 428.7 165.58 317.58 200.38 317.58 200.38 264.29"/><rect class="cls-11" x="155.26" y="298.85" width="10.33" height="18.73"/><ellipse class="cls-2" cx="159.93" cy="434.31" rx="15.8" ry="14.69"/><polygon class="cls-3" points="399.4 264.29 423.07 264.29 455.64 264.29 455.64 317.21 455.64 317.58 444.52 317.58 444.52 429.31 434.19 428.7 434.19 317.58 399.4 317.58 399.4 264.29"/><rect class="cls-11" x="434.19" y="298.85" width="10.33" height="18.73" transform="translate(878.71 616.43) rotate(180)"/><ellipse class="cls-2" cx="439.84" cy="434.31" rx="15.8" ry="14.69"/><path class="cls-11" d="M134.92,399.8l298.47,81.65c1.38,27.84,21.43,53.05,51.78,61.36,32.16,8.79,65.64-4.19,82.19-29.69l-46.09,1c-15.56.33-29-10.13-31.34-24.43h0C487.1,472.54,501,457,519.6,456.43l53.61-1.57c-7.69-19.11-24.62-34.75-47.29-40.95-30.35-8.3-61.89,2.8-79.25,25.52L148.2,357.78c-1.38-27.84-21.43-53.06-51.78-61.36-32.16-8.8-65.64,4.19-82.19,29.68l46.09-1c15.56-.32,29,10.13,31.34,24.44h0C94.49,366.69,80.6,382.25,62,382.79L8.38,384.36c7.69,19.12,24.62,34.75,47.29,41C86,433.62,117.56,422.51,134.92,399.8Z"/><path class="cls-8" d="M167.94,386h0c1.54-4.88,7-7.67,12.28-6.24L392,437.71c5.25,1.44,8.25,6.55,6.7,11.43h0c-1.54,4.88-7,7.67-12.28,6.23L174.64,397.43C169.4,396,166.4,390.88,167.94,386Z"/><path class="cls-3" d="M219.5,352.36h0c-8.1-3.3-17.55.12-21.11,7.66l-15.73,33.35,7.55,3.08-31.55,33.46a4.57,4.57,0,0,0,.48,6.78h0a5.44,5.44,0,0,0,7.29-.45l33.7-35.74L212,405.34,227.73,372C231.28,364.46,227.6,355.67,219.5,352.36Z"/><polygon class="cls-2" points="182.66 393.37 211.99 405.34 215.78 397.31 186.61 384.99 182.66 393.37"/><line class="cls-2" x1="415.13" y1="439.33" x2="404.38" y2="440.61"/><path class="cls-3" d="M429.87,476.62l-26.44,2.26-2.93-29.64c-.67-6.79,4.71-12.81,12-13.43h0c7.3-.63,13.76,4.37,14.43,11.17Z"/><polygon class="cls-2" points="429.87 476.62 403.43 478.88 402.72 471.65 429.16 469.39 429.87 476.62"/><path class="cls-3" d="M417.74,488.79h0a5.3,5.3,0,0,1-5.87-4.55l-.6-6,10.76-.92.6,6A5.15,5.15,0,0,1,417.74,488.79Z"/><rect class="cls-3" x="292.99" y="24.89" width="11.75" height="57.11"/><ellipse class="cls-1" cx="298.69" cy="18.8" rx="17.8" ry="16.56"/><ellipse class="cls-6" cx="302.69" cy="13.5" rx="9.7" ry="9.03"/><rect class="cls-6" x="187.04" y="131.14" width="10.33" height="9.61"/><rect class="cls-6" x="187.04" y="147.02" width="10.33" height="9.61"/><rect class="cls-6" x="187.04" y="162.9" width="10.33" height="9.61"/><rect class="cls-6" x="187.04" y="178.77" width="10.33" height="9.61"/><rect class="cls-6" x="402.33" y="133.5" width="10.33" height="9.61"/><rect class="cls-6" x="402.33" y="149.38" width="10.33" height="9.61"/><rect class="cls-6" x="402.33" y="165.25" width="10.33" height="9.61"/><rect class="cls-6" x="402.33" y="181.13" width="10.33" height="9.61"/><polygon class="cls-12" points="463.6 215.49 524.63 139.5 526.77 181.13 595.28 138.31 511.26 221.13 512.34 176.39 463.6 215.49"/><polygon class="cls-12" points="148.72 518.1 35.73 618.54 99.78 599.8 31.01 690.2 172.25 568.15 122.4 572.54 148.72 518.1"/><polygon class="cls-12" points="144.13 236.34 122.87 164.15 106.36 189.99 75.57 140.41 99.6 233.99 116.87 201.87 144.13 236.34"/><polygon class="cls-12" points="417.35 563.76 431.3 611.14 442.14 594.18 462.34 626.72 446.57 565.31 435.24 586.39 417.35 563.76"/></svg>