<svg id="Capa_1" data-name="Capa 1" xmlns="http://www.w3.org/2000/svg" viewBox="0 0 128 36"><defs><style>.cls-1,.cls-2{fill:#434345;}.cls-2{fill-rule:evenodd;}</style></defs><path class="cls-1" d="M43.32,11.71a14.25,14.25,0,0,0,.16-4.6,6.36,6.36,0,0,0-2-4.16C39.38.88,35.55-.12,33,1.51,30.72,3,32,6.19,33,7.93a9.5,9.5,0,0,0,4,3.4,48.2,48.2,0,0,0-8.64.22c-1.23.14-2.46.35-3.67.6a4.26,4.26,0,0,0-1.63-.41c-.24-2.14-2.7-4.88-3.86-6A6.79,6.79,0,0,0,11,5C8.52,6.68,8.74,10,10.49,12c2.77,3.16,8,1.53,11.52.75,0,0,0,.07,0,.11A39.65,39.65,0,0,0,12.13,17a13.35,13.35,0,0,0-1.8-.62,7.64,7.64,0,0,0-4.93,0c-2.82.82-6.18,3.87-4.78,7.13s5.14,5.09,8.4,3c3-1.9,4.87-5,4.5-8.45a38.87,38.87,0,0,1,9.15-3.68,12.31,12.31,0,0,0-5,5.7C16.53,23,19,25.84,22,26.22a6.46,6.46,0,0,0,7.27-4.39c.77-2.35-.49-5.64-2.29-7.81A4.3,4.3,0,0,1,28,13.21c1.7-.24,3.42-.4,5.14-.47a42.36,42.36,0,0,1,6,.18,6.45,6.45,0,0,0-3.71,2.53c-2.09,2.89-1.32,6.08,1.65,8,2.79,1.78,6.62.63,8.77-1.59a6.11,6.11,0,0,0,1.5-4.74,6.18,6.18,0,0,0-.55-2.91C50.48,15,54.14,16,57.8,17a8.2,8.2,0,0,0-2.67.63c-3.28,1.4-1.72,5.81.09,7.63,2.18,2.2,6.32,1.39,8.84.44,2.86-1.07,5.18-2.93,5.06-5.8,3.54,1,7,2.17,10.63,3l1.21.25A7.33,7.33,0,0,0,76.36,26c-1.77,2.52-1.8,6.25,1,8.07a7.08,7.08,0,0,0,9.34-1c1.65-1.74,3.42-5.76,2.1-8.25l.73-.17c1.62.2,3.25.38,4.86.54a111.57,111.57,0,0,0,11.26.57,8.12,8.12,0,0,0-4.8,4.3c-1.24,2.91,2.17,4.74,4.57,5,3.24.37,6.19-1.2,7-4.49a6.77,6.77,0,0,0-.74-5.13c5-.5,10-1.67,15-1.81a.79.79,0,0,0,0-1.58,123.33,123.33,0,0,0-13.09,1.58.28.28,0,0,0-.18-.06,19.46,19.46,0,0,1-3.59-.07c.66-2.55-1.93-6.48-3.27-8a7.75,7.75,0,0,0-9.61-2c-3,1.76-1.6,5.37,0,7.48a9.14,9.14,0,0,0,4.57,3.11c-2.41-.11-4.82-.29-7.23-.49-1.71-.15-3.41-.36-5.1-.6A13.16,13.16,0,0,1,88,22.41c1.68-1.62,1.39-5,1-7.06-.78-4-4.13-5.16-7.9-5.27a4.16,4.16,0,0,0-4,6,12.41,12.41,0,0,0,5,5.53c-4.82-1-9.6-2.27-14.36-3.59l0,0c-.86-.39-1.7-.81-2.51-1.27,2.11-2.29.86-7.34-.59-9.45-2.17-3.14-6.62-5.61-10.3-3.69C51.55,5,52.7,8.88,53.63,10.92a10,10,0,0,0,4.26,4.47C53.41,14.19,49,13,44.49,12.24Zm-3-.08a16.17,16.17,0,0,1-5.43-3c-1.47-1.24-2.81-4-1.88-5.84.72-1.43,3-1.27,4.3-1A7.38,7.38,0,0,1,41.23,4c1.77,1.81,1.5,4.82,1.25,7.3a7.86,7.86,0,0,1-2-1.55A13.42,13.42,0,0,1,39,7.49c-.24-.41-.38-1-.76-1.34a.43.43,0,0,0-.57,0l-.1.08a.52.52,0,0,0-.13.53,9.07,9.07,0,0,0,4,5Zm-35,10.61a.79.79,0,0,0,1.12,1.12,32.34,32.34,0,0,1,6-4.72A8,8,0,0,1,9.76,24.1,8,8,0,0,1,6.86,26c-2,.68-4-1-4.89-2.59-2.07-3.66,3-6.4,5.8-6.69a9.73,9.73,0,0,1,3.47.75A34,34,0,0,0,5.32,22.24Zm20.09-8.11c-.27.37-.53.75-.76,1.12-.87,1.39-2.64,3.49-2.26,5.23a.33.33,0,0,0,.55.14c.91-.93,1.27-2.42,1.94-3.55.39-.65.78-1.38,1.23-2.05a14,14,0,0,1,2,3.61c1.2,3.45-1.54,6.28-4.79,6.56a5.23,5.23,0,0,1-3.89-1.5c-1.81-1.59-.59-3.61.54-5.11A15,15,0,0,1,25.3,14,.69.69,0,0,1,25.41,14.13Zm85.81,16.06c-.55,2.95-3.55,3.94-6.17,3.44A4.87,4.87,0,0,1,102.14,32c-1.17-1.56,1.49-3.64,2.48-4.36a17,17,0,0,1,4.42-2,10.81,10.81,0,0,0-1.13.78A9.15,9.15,0,0,0,106.38,28c-.56.72-.91,2.15-2,2.22a.28.28,0,0,0-.24.41c.6,1.17,1.66.64,2.14-.31A11.1,11.1,0,0,1,110.46,26,5,5,0,0,1,111.22,30.19ZM100.5,22.43c-2.11-1.09-4.48-3.92-4-6.42.42-2.15,3.4-2.44,5.07-2.16a8.28,8.28,0,0,1,3.76,2c1.72,1.46,3.79,4.88,3.6,7.47a10,10,0,0,1-2.88-1.05c-1.7-.93-2-2.94-3.6-3.82-.19-.1-.47.07-.39.3a8.06,8.06,0,0,0,5.54,5.17A16.28,16.28,0,0,1,100.5,22.43ZM86.9,24.26a9.78,9.78,0,0,0-2.83,1.14c-1.38.85-3,2.58-2.94,4.29a.39.39,0,0,0,.73.2,10.93,10.93,0,0,1,3.2-3.79,8.74,8.74,0,0,1,2.52-1c1.4,2.42-.54,5.86-2.15,7.55-2.22,2.35-6,1.87-8.16-.28s-.68-5.53,1.4-7a10.7,10.7,0,0,1,5-1.6C84.71,23.92,85.8,24.1,86.9,24.26Zm-6.3-5a11.46,11.46,0,0,1-2.2-3,3.47,3.47,0,0,1,.54-4.32,4.71,4.71,0,0,1,2.93-.52c3.23.08,5.44,1.6,6,4.8A7.61,7.61,0,0,1,87.13,22a7.85,7.85,0,0,1-1.23-.87c-1.7-1.47-1.56-3.81-2.89-5.44a.46.46,0,0,0-.78.32,9.73,9.73,0,0,0,3.32,6.22l.3.21-.56-.11A19.52,19.52,0,0,1,80.6,19.23Zm-21.48-1A33,33,0,0,1,64,19a21.06,21.06,0,0,0-5.91,2.22c-.55.29-.16,1.12.42,1a32.74,32.74,0,0,0,4-1.56,11.4,11.4,0,0,1,5.38-.73c-.31,2.26-1.6,3.39-3.8,4.52a9.94,9.94,0,0,1-6.67.79c-1.53-.37-2.33-1.72-2.89-3.06C53,18.3,57.18,18.16,59.12,18.23ZM53.68,7c-.32-5,6.39-2.38,8.37-.76,2.79,2.26,4.15,6.8,2.12,10A14,14,0,0,1,62,14.54C60.4,13,59.89,10.9,58.79,9a.46.46,0,0,0-.86.23c.17,2.89,2.16,5.18,4.58,6.86C58.17,14.54,54,12.18,53.68,7Zm-9,6.75A15.21,15.21,0,0,0,41,15.21c-.91.47-4.08,2.1-2.67,3.5a.42.42,0,0,0,.7-.18c.27-1.38,2.18-2.15,3.29-2.74a15.29,15.29,0,0,1,3.24-1.39c2.55,4.93-2.82,10.49-7.85,7.9-3-1.52-2.62-4.81-.57-6.88,1.48-1.5,3.71-1.89,5.87-2C43.59,13.53,44.16,13.64,44.73,13.75ZM12,5.74c2.22-1.49,5.23-.27,6.92,1.35a13.5,13.5,0,0,1,2.84,4.34c-1.71-.63-3.1-1.77-4.72-2.52-.42-.2-1,.23-.7.7a6.8,6.8,0,0,0,3.88,2.53c-1.76.21-3.52.42-5.3.47C11.23,12.7,8.39,8.17,12,5.74Z"/><path class="cls-2" d="M126.31,22.75v-.07a1,1,0,0,0,.21-.09.49.49,0,0,0,0-.85c-.78-.35-1-2.89-1.09-3.59a26.53,26.53,0,0,0-.93-3.84c-1-2.77-3.72-5.78-6.71-3.6-2.72,2-3.68,6.18-1.13,8.57a22.25,22.25,0,0,0,4.5,2.69,14.4,14.4,0,0,0,1.57.79,17.1,17.1,0,0,0-3.62,3.09c-2.4,2.55-3.28,5.78-1.24,8.78,1.7,2.49,4.42,1.29,6-.58,2.63-3.13,1.33-7.08,2.74-10.62A.54.54,0,0,0,126.31,22.75Zm-5.7-2.46a11.41,11.41,0,0,1-3.73-2.66c-1.31-1.72.13-4.24,1.31-5.57,1.65-1.84,3.46-.28,4.45,1.3,1.23,2,1.37,4.44,1.87,6.68,0,.19.11.49.19.8-.28-.5-.59-1-.88-1.48a7.35,7.35,0,0,1-1-4.07.42.42,0,0,0-.77-.21c-1.25,2.26.31,5.26,2.08,7l.06.08A14.11,14.11,0,0,1,120.61,20.29Zm.23,14.49c-2.29.77-3.07-3.14-2.85-4.48a8.08,8.08,0,0,1,2-3.57c.93-1.08,2.82-3,4.56-3.56a7.63,7.63,0,0,0-1.8,2.15c-.65,1-2.31,3.77-1.48,5a.38.38,0,0,0,.59.08,3.28,3.28,0,0,0,.46-1.22,15.32,15.32,0,0,1,.93-2.44,7.45,7.45,0,0,1,1.8-2.54C124.14,27.94,125.24,33.28,120.84,34.78Z"/></svg>